<svg version="1.1" id="Layer_1" xmlns="http://www.w3.org/2000/svg" xmlns:xlink="http://www.w3.org/1999/xlink" x="0px" y="0px"
	 width="100%" viewBox="0 0 496 496" enable-background="new 0 0 496 496" xml:space="preserve">
<path fill="#000000" opacity="1.000000" stroke="none" 
	d="
M256.000122,70.655518 
	C263.997894,70.663231 271.497375,70.768051 278.992584,70.633522 
	C282.211456,70.575752 283.462708,71.780144 283.376343,75.008797 
	C283.220551,80.836205 283.265625,86.671608 283.353271,92.501770 
	C283.394623,95.251221 282.276123,96.403519 279.506775,96.352867 
	C274.343597,96.258438 269.163818,96.574883 264.016235,96.279640 
	C259.777496,96.036522 258.067688,97.237091 258.211853,101.818016 
	C258.483246,110.441681 258.249451,110.308144 266.643188,111.636406 
	C305.787292,117.830727 339.016541,135.381531 366.717194,163.678436 
	C392.198181,189.707916 408.119141,220.764954 413.933380,256.516510 
	C421.952271,305.824707 411.302490,351.186890 381.342407,391.380615 
	C354.104126,427.922913 317.660980,450.938110 272.891357,458.829529 
	C220.215897,468.114532 171.878586,456.413330 129.971695,422.609283 
	C96.186806,395.356781 74.336975,359.922607 67.240128,317.118530 
	C56.693054,253.504608 74.736221,198.655045 122.553055,154.427322 
	C149.490250,129.512039 181.781677,116.169968 217.670227,110.685982 
	C219.943832,110.338562 222.899994,110.510391 223.338806,107.665123 
	C223.860275,104.283775 224.339874,100.663742 222.847061,97.365936 
	C222.234375,96.012466 220.497787,96.372147 219.190567,96.363838 
	C214.025604,96.331032 208.849274,96.127586 203.698730,96.398109 
	C199.461990,96.620621 197.537949,95.270439 197.778717,90.782738 
	C198.046127,85.798698 198.011444,80.780823 197.777985,75.793144 
	C197.593826,71.858772 199.141510,70.560349 203.016586,70.591698 
	C220.510117,70.733231 238.005417,70.654808 256.000122,70.655518 
M247.013031,126.621117 
	C233.474579,125.855652 219.978088,127.023155 206.884384,130.036545 
	C173.390915,137.744766 144.581650,153.865662 121.798103,180.015961 
	C88.094223,218.700302 75.258789,263.629608 83.763489,313.983093 
	C89.859627,350.076324 107.021400,380.819672 134.872849,404.936310 
	C174.715546,439.436066 220.884216,453.001221 272.605377,442.102051 
	C325.558777,430.943268 363.606750,399.746887 386.453766,350.529510 
	C398.357025,324.887390 402.196869,297.668274 399.426086,269.769012 
	C396.489594,240.201218 385.891785,213.280701 367.774323,189.559692 
	C348.239197,163.982513 323.285400,145.884064 292.819916,135.254364 
	C278.229065,130.163483 263.268585,127.614594 247.013031,126.621117 
z"/>
<path fill="#000000" opacity="1.000000" stroke="none" 
	d="
M339.601074,247.720139 
	C307.953369,259.902405 276.659607,271.923981 245.295425,283.972626 
	C243.518997,279.939514 244.678802,276.777130 244.683853,273.695892 
	C244.729965,245.549820 244.872726,217.403625 245.078583,189.258163 
	C245.182083,175.107101 245.745804,160.953552 245.544373,146.809067 
	C245.466278,141.325302 248.074326,141.300262 251.985031,141.801620 
	C279.636322,145.346588 304.811646,155.070984 327.149109,171.872192 
	C347.194641,186.949509 362.880615,205.620941 373.914124,228.222229 
	C375.836426,232.159866 375.536469,234.014267 371.190063,235.575775 
	C360.697571,239.345367 350.356934,243.537643 339.601074,247.720139 
z"/>
</svg>