<?xml version="1.0" standalone="no"?>
<!DOCTYPE svg PUBLIC "-//W3C//DTD SVG 20010904//EN"
 "http://www.w3.org/TR/2001/REC-SVG-20010904/DTD/svg10.dtd">
<svg version="1.0" xmlns="http://www.w3.org/2000/svg"
 width="662.000000pt" height="662.000000pt" viewBox="0 0 662.000000 662.000000"
 preserveAspectRatio="xMidYMid meet">
<metadata>
Created by potrace 1.14, written by Peter Selinger 2001-2017
</metadata>
<g transform="translate(0.000000,662.000000) scale(0.100000,-0.100000)"
fill="#000000" stroke="none">
<path d="M0 3310 l0 -3310 3310 0 3310 0 0 3310 0 3310 -3310 0 -3310 0 0
-3310z m5360 1850 l0 -110 -59 0 c-32 0 -96 -7 -141 -16 -173 -32 -309 -107
-505 -276 -118 -102 -1628 -1514 -1633 -1526 -2 -8 1840 -1822 1971 -1940 98
-88 195 -154 270 -183 l55 -21 72 37 c84 45 141 105 171 184 45 114 22 328
-46 416 -94 124 -199 195 -569 387 -346 180 -442 241 -578 367 -239 221 -308
598 -164 896 89 184 249 309 486 379 278 82 661 52 906 -72 76 -38 77 -38 130
28 l49 60 61 0 61 0 9 -387 c4 -214 8 -417 9 -453 l0 -65 -74 -3 c-41 -2 -78
1 -83 6 -4 4 -21 53 -37 108 -105 363 -245 534 -492 601 -99 27 -293 24 -384
-4 -143 -46 -227 -117 -265 -226 -28 -80 -33 -125 -21 -192 35 -191 185 -323
641 -562 478 -251 685 -410 798 -613 71 -128 103 -309 83 -463 -15 -114 -29
-164 -71 -248 -71 -139 -164 -227 -325 -305 -132 -64 -267 -100 -425 -114 -70
-7 -400 -10 -835 -8 l-720 3 -3 96 -3 96 136 7 c185 10 236 29 256 95 15 52
-10 146 -64 238 -80 136 -222 289 -855 918 -568 565 -638 630 -669 633 l-34 3
4 -748 c4 -632 7 -759 20 -819 41 -189 139 -273 352 -304 39 -5 97 -10 131
-10 34 0 82 -3 108 -6 l47 -7 -3 -96 -3 -96 -965 0 -965 0 -3 96 -3 96 38 7
c21 3 70 6 108 6 108 0 239 18 299 40 119 45 171 111 203 260 17 80 18 173 18
1700 0 1495 -1 1621 -17 1689 -39 165 -108 238 -274 287 -54 16 -124 18 -771
21 l-713 4 0 109 0 110 2640 0 2640 0 0 -110z"/>
<path d="M2806 5034 c-184 -33 -268 -107 -313 -275 -15 -57 -17 -148 -20 -856
-4 -774 -4 -793 15 -793 25 0 1305 1250 1412 1379 91 110 146 210 162 297 21
117 -10 200 -92 242 l-44 22 -521 -1 c-403 -1 -538 -4 -599 -15z"/>
</g>
</svg>
