<svg version="1.1" id="Layer_1" xmlns="http://www.w3.org/2000/svg" xmlns:xlink="http://www.w3.org/1999/xlink" x="0px" y="0px"
	 width="100%" viewBox="0 0 670 670" enable-background="new 0 0 670 670" xml:space="preserve">
<path fill="#3C3C6C" opacity="1.000000" stroke="none" 
	d="
M356.000000,671.000000 
	C237.333359,671.000000 119.166710,671.000000 1.000048,671.000000 
	C1.000032,447.666718 1.000032,224.333450 1.000016,1.000138 
	C224.333237,1.000092 447.666473,1.000092 670.999756,1.000046 
	C670.999878,224.333191 670.999878,447.666382 670.999939,670.999756 
	C566.166687,671.000000 461.333344,671.000000 356.000000,671.000000 
M277.499634,568.513123 
	C296.590363,568.513123 315.681091,568.513123 334.773865,568.513123 
	C334.773865,561.509216 334.773865,555.233032 334.773865,548.873413 
	C325.096985,548.224365 315.622589,547.858826 306.208069,546.903259 
	C284.038605,544.652954 273.649872,534.667236 270.937347,512.586670 
	C269.782776,503.188171 269.289001,493.656891 269.245636,484.182526 
	C269.063232,444.353912 269.161896,404.523987 269.171478,364.694550 
	C269.171875,363.096497 269.312622,361.498505 269.474213,358.071320 
	C273.082336,359.935608 276.147614,360.724976 278.098145,362.646149 
	C308.491241,392.581573 338.911621,422.493317 368.952911,452.780243 
	C384.897980,468.855652 400.543518,485.275482 415.476715,502.283997 
	C421.494446,509.138062 426.407867,517.523560 429.765228,526.025024 
	C435.354065,540.177002 430.109772,547.204529 414.819855,547.932800 
	C407.377502,548.287354 399.904266,547.994080 392.264191,547.994080 
	C392.264191,555.334412 392.264191,561.615417 392.264191,568.513245 
	C394.338531,568.513245 396.294769,568.506653 398.250916,568.514343 
	C439.743317,568.677490 481.235596,568.883972 522.728149,568.985718 
	C539.063965,569.025757 555.327087,568.497498 571.263855,564.066528 
	C601.751953,555.589722 624.176331,539.006104 629.607666,505.781738 
	C633.471008,482.148895 628.876343,460.421997 612.788635,441.861694 
	C601.619812,428.976288 587.806702,419.383881 573.248230,410.950958 
	C553.098999,399.279541 532.482178,388.417603 512.263733,376.862305 
	C502.130920,371.071106 492.798096,364.073273 485.342438,354.888977 
	C470.821686,337.001495 476.940643,309.130890 497.462128,299.064758 
	C508.134216,293.829926 519.457703,292.813141 531.025085,293.319580 
	C551.627747,294.221649 568.206909,302.460693 579.470764,320.287292 
	C586.755066,331.815704 591.078552,344.513885 594.839722,357.494629 
	C597.617065,367.079926 597.778809,367.033051 607.586304,367.051971 
	C613.946899,367.064240 613.923584,367.064758 613.783264,360.764191 
	C613.215698,335.276672 612.635925,309.789398 612.121033,284.300812 
	C611.936462,275.165436 612.004395,275.047516 602.950928,275.823975 
	C601.205627,275.973663 599.205872,277.075653 597.960754,278.357391 
	C594.977661,281.428162 592.373718,284.867340 589.565918,288.218567 
	C587.396118,287.258789 585.557739,286.495453 583.761353,285.643524 
	C552.243347,270.696167 519.738586,268.663086 486.608765,279.025696 
	C444.201569,292.290161 427.744965,330.354187 437.924561,370.852753 
	C442.185608,387.805023 452.490082,400.378052 465.714905,411.172546 
	C482.116455,424.559967 501.150330,433.368286 519.592712,443.292786 
	C533.329834,450.685150 546.835327,458.585815 559.966736,467.004517 
	C573.845642,475.902405 580.629761,489.163818 580.833191,505.725922 
	C580.964783,516.445740 578.303406,526.103271 570.674927,534.055725 
	C561.171753,543.962585 552.050415,545.817688 540.802734,538.236206 
	C531.196289,531.760986 521.879333,524.546631 513.595642,516.468323 
	C454.658905,458.992310 396.013763,401.217224 337.300659,343.512054 
	C332.813690,339.102081 328.518188,334.497314 323.871796,329.713440 
	C325.415070,328.247589 326.950928,326.769623 328.507172,325.313446 
	C364.035980,292.069366 399.506775,258.763000 435.121674,225.611420 
	C454.388611,207.677078 473.699921,189.780029 493.376068,172.299347 
	C506.346832,160.775879 521.013489,151.988083 538.632446,149.441940 
	C544.848755,148.543610 551.120117,148.026016 557.474731,147.322586 
	C557.474731,140.308426 557.474731,133.275543 557.474731,126.360641 
	C381.337372,126.360641 205.611862,126.360641 29.907375,126.360641 
	C29.907375,133.528671 29.907375,140.331360 29.907375,147.705643 
	C31.903423,147.705643 33.692822,147.705643 35.482220,147.705643 
	C69.312241,147.705673 103.144348,147.488846 136.971252,147.813889 
	C150.250793,147.941483 163.664200,148.321472 176.756256,150.305176 
	C194.459839,152.987640 203.556442,163.229309 205.997131,180.892059 
	C206.975296,187.970810 207.722763,195.149246 207.733627,202.283600 
	C207.882095,299.773010 207.957779,397.262756 207.794983,494.751984 
	C207.780075,503.678772 206.502182,512.690796 204.931198,521.506470 
	C202.747787,533.758667 195.340958,542.103027 183.037888,544.652649 
	C173.804352,546.566101 164.287842,547.201111 154.867386,548.087036 
	C150.479477,548.499634 146.020615,548.157532 141.740295,548.157532 
	C141.740295,555.599060 141.740295,561.845642 141.740295,568.513123 
	C186.904694,568.513123 231.702148,568.513123 277.499634,568.513123 
z"/>
<path fill="#FEFEFE" opacity="1.000000" stroke="none" 
	d="
M276.999634,568.513123 
	C231.702148,568.513123 186.904694,568.513123 141.740295,568.513123 
	C141.740295,561.845642 141.740295,555.599060 141.740295,548.157532 
	C146.020615,548.157532 150.479477,548.499634 154.867386,548.087036 
	C164.287842,547.201111 173.804352,546.566101 183.037888,544.652649 
	C195.340958,542.103027 202.747787,533.758667 204.931198,521.506470 
	C206.502182,512.690796 207.780075,503.678772 207.794983,494.751984 
	C207.957779,397.262756 207.882095,299.773010 207.733627,202.283600 
	C207.722763,195.149246 206.975296,187.970810 205.997131,180.892059 
	C203.556442,163.229309 194.459839,152.987640 176.756256,150.305176 
	C163.664200,148.321472 150.250793,147.941483 136.971252,147.813889 
	C103.144348,147.488846 69.312241,147.705673 35.482220,147.705643 
	C33.692822,147.705643 31.903423,147.705643 29.907375,147.705643 
	C29.907375,140.331360 29.907375,133.528671 29.907375,126.360641 
	C205.611862,126.360641 381.337372,126.360641 557.474731,126.360641 
	C557.474731,133.275543 557.474731,140.308426 557.474731,147.322586 
	C551.120117,148.026016 544.848755,148.543610 538.632446,149.441940 
	C521.013489,151.988083 506.346832,160.775879 493.376068,172.299347 
	C473.699921,189.780029 454.388611,207.677078 435.121674,225.611420 
	C399.506775,258.763000 364.035980,292.069366 328.507172,325.313446 
	C326.950928,326.769623 325.415070,328.247589 323.871796,329.713440 
	C328.518188,334.497314 332.813690,339.102081 337.300659,343.512054 
	C396.013763,401.217224 454.658905,458.992310 513.595642,516.468323 
	C521.879333,524.546631 531.196289,531.760986 540.802734,538.236206 
	C552.050415,545.817688 561.171753,543.962585 570.674927,534.055725 
	C578.303406,526.103271 580.964783,516.445740 580.833191,505.725922 
	C580.629761,489.163818 573.845642,475.902405 559.966736,467.004517 
	C546.835327,458.585815 533.329834,450.685150 519.592712,443.292786 
	C501.150330,433.368286 482.116455,424.559967 465.714905,411.172546 
	C452.490082,400.378052 442.185608,387.805023 437.924561,370.852753 
	C427.744965,330.354187 444.201569,292.290161 486.608765,279.025696 
	C519.738586,268.663086 552.243347,270.696167 583.761353,285.643524 
	C585.557739,286.495453 587.396118,287.258789 589.565918,288.218567 
	C592.373718,284.867340 594.977661,281.428162 597.960754,278.357391 
	C599.205872,277.075653 601.205627,275.973663 602.950928,275.823975 
	C612.004395,275.047516 611.936462,275.165436 612.121033,284.300812 
	C612.635925,309.789398 613.215698,335.276672 613.783264,360.764191 
	C613.923584,367.064758 613.946899,367.064240 607.586304,367.051971 
	C597.778809,367.033051 597.617065,367.079926 594.839722,357.494629 
	C591.078552,344.513885 586.755066,331.815704 579.470764,320.287292 
	C568.206909,302.460693 551.627747,294.221649 531.025085,293.319580 
	C519.457703,292.813141 508.134216,293.829926 497.462128,299.064758 
	C476.940643,309.130890 470.821686,337.001495 485.342438,354.888977 
	C492.798096,364.073273 502.130920,371.071106 512.263733,376.862305 
	C532.482178,388.417603 553.098999,399.279541 573.248230,410.950958 
	C587.806702,419.383881 601.619812,428.976288 612.788635,441.861694 
	C628.876343,460.421997 633.471008,482.148895 629.607666,505.781738 
	C624.176331,539.006104 601.751953,555.589722 571.263855,564.066528 
	C555.327087,568.497498 539.063965,569.025757 522.728149,568.985718 
	C481.235596,568.883972 439.743317,568.677490 398.250916,568.514343 
	C396.294769,568.506653 394.338531,568.513245 392.264191,568.513245 
	C392.264191,561.615417 392.264191,555.334412 392.264191,547.994080 
	C399.904266,547.994080 407.377502,548.287354 414.819855,547.932800 
	C430.109772,547.204529 435.354065,540.177002 429.765228,526.025024 
	C426.407867,517.523560 421.494446,509.138062 415.476715,502.283997 
	C400.543518,485.275482 384.897980,468.855652 368.952911,452.780243 
	C338.911621,422.493317 308.491241,392.581573 278.098145,362.646149 
	C276.147614,360.724976 273.082336,359.935608 269.474213,358.071320 
	C269.312622,361.498505 269.171875,363.096497 269.171478,364.694550 
	C269.161896,404.523987 269.063232,444.353912 269.245636,484.182526 
	C269.289001,493.656891 269.782776,503.188171 270.937347,512.586670 
	C273.649872,534.667236 284.038605,544.652954 306.208069,546.903259 
	C315.622589,547.858826 325.096985,548.224365 334.773865,548.873413 
	C334.773865,555.233032 334.773865,561.509216 334.773865,568.513123 
	C315.681091,568.513123 296.590363,568.513123 276.999634,568.513123 
M269.159882,319.499908 
	C269.159882,326.938660 269.159882,334.377411 269.159882,343.442230 
	C272.049835,341.539246 274.048920,340.630493 275.528717,339.188721 
	C310.378448,305.234558 345.215027,271.266602 379.949371,237.194443 
	C390.055969,227.280487 400.134979,217.307663 409.687225,206.868286 
	C418.481262,197.257553 426.285126,186.852661 428.607605,173.440567 
	C430.918365,160.096222 425.621094,150.499146 414.407349,148.308548 
	C411.657990,147.771469 408.767944,147.837234 405.941956,147.828537 
	C383.447144,147.759247 360.947845,147.460739 338.458923,147.810410 
	C325.512329,148.011719 312.439972,148.354111 299.679779,150.304626 
	C282.307861,152.960114 273.407776,162.674759 271.013885,180.151932 
	C269.685394,189.850815 269.160034,199.724014 269.113220,209.522659 
	C268.939667,245.847519 269.115387,282.174042 269.159882,319.499908 
z"/>
<path fill="#3D3D6D" opacity="1.000000" stroke="none" 
	d="
M269.159882,318.999939 
	C269.115387,282.174042 268.939667,245.847519 269.113220,209.522659 
	C269.160034,199.724014 269.685394,189.850815 271.013885,180.151932 
	C273.407776,162.674759 282.307861,152.960114 299.679779,150.304626 
	C312.439972,148.354111 325.512329,148.011719 338.458923,147.810410 
	C360.947845,147.460739 383.447144,147.759247 405.941956,147.828537 
	C408.767944,147.837234 411.657990,147.771469 414.407349,148.308548 
	C425.621094,150.499146 430.918365,160.096222 428.607605,173.440567 
	C426.285126,186.852661 418.481262,197.257553 409.687225,206.868286 
	C400.134979,217.307663 390.055969,227.280487 379.949371,237.194443 
	C345.215027,271.266602 310.378448,305.234558 275.528717,339.188721 
	C274.048920,340.630493 272.049835,341.539246 269.159882,343.442230 
	C269.159882,334.377411 269.159882,326.938660 269.159882,318.999939 
z"/>
</svg>